<svg id="Logos" xmlns="http://www.w3.org/2000/svg" viewBox="0 0 1633.18 474.3"><defs><style>.cls-1{fill:#1c1b1a;}</style></defs><path class="cls-1" d="M619.38,473.4,627.27,450H635l7.9,23.39v.5h-6.14l-1.42-4.65h-8.37l-1.42,4.65h-6.14ZM634,464.87l-2.72-9H631l-2.72,9Z" transform="translate(0 0)"/><path class="cls-1" d="M664.31,450v15.66c0,2.46,1.59,4.12,4.51,4.12s4.52-1.66,4.52-4.12V450h6.1v15.26c0,5.48-3.78,9-10.62,9-6.67,0-10.62-3.55-10.62-9V450Z" transform="translate(0 0)"/><path class="cls-1" d="M697.8,450c4.18,0,7.43,1.85,7.43,5.9a5.41,5.41,0,0,1-4.35,5.58v.33c1.5.37,4.68,1.39,4.68,5.64s-3.52,6.44-7.76,6.44H685.38V450Zm-6.31,9.62h4.65c1.89,0,3.12-.83,3.12-2.62s-1.23-2.62-3.12-2.62h-4.65Zm0,9.89h4.71c1.93,0,3.39-.8,3.39-2.75S698.13,464,696.2,464h-4.71Z" transform="translate(0 0)"/><path class="cls-1" d="M716.41,450V473.9h-6.1V450Z" transform="translate(0 0)"/><path class="cls-1" d="M731.85,449.61c6.57,0,9.95,3.38,10.22,7.6v.5h-5.71c-.07-2.86-2-3.92-4.38-3.92s-3.85,1.06-3.85,2.59,1.19,2.16,3.52,2.69l2.45.56c5.35,1.23,8.1,3.25,8.1,7.17s-3.22,7.5-10.06,7.5-10.52-3.58-10.85-7.93v-.5h5.78c.16,3,2.22,4.25,4.94,4.25s4.15-1.26,4.15-2.86-1.09-2.29-3.65-2.88l-2.46-.57c-5.17-1.19-8-3.38-8-7.1S725.27,449.61,731.85,449.61Z" transform="translate(0 0)"/><path class="cls-1" d="M759.09,449.61c7.84,0,12.88,5,12.88,12.34s-5,12.35-12.88,12.35-12.87-5.05-12.87-12.35S751.26,449.61,759.09,449.61Zm0,20.18c4.32,0,6.77-3.19,6.77-7.84s-2.45-7.83-6.77-7.83-6.77,3.19-6.77,7.83S754.78,469.79,759.09,469.79Z" transform="translate(0 0)"/><path class="cls-1" d="M793.91,450v4.38H783.15v5.34h9.43v4.38h-9.43v9.79h-6.1V450Z" transform="translate(0 0)"/><path class="cls-1" d="M819.1,450v4.38h-7.77V473.9h-6.11V454.39h-7.76V450Z" transform="translate(0 0)"/><path class="cls-1" d="M846.51,449.61c7.83,0,12.88,5,12.88,12.34s-5,12.35-12.88,12.35-12.88-5.05-12.88-12.35S838.68,449.61,846.51,449.61Zm0,20.18c4.31,0,6.77-3.19,6.77-7.84s-2.46-7.83-6.77-7.83-6.77,3.19-6.77,7.83S842.19,469.79,846.51,469.79Z" transform="translate(0 0)"/><path class="cls-1" d="M879.7,464.61l4.87,8.79v.5h-6.33l-4.58-8.76h-3.09v8.76h-6.11V450h11.88c4.72,0,8.43,2.75,8.43,7.53A7.16,7.16,0,0,1,879.7,464.61Zm-9.13-3.85h4.51c2.19,0,3.65-1.1,3.65-3.19s-1.46-3.18-3.65-3.18h-4.51Z" transform="translate(0 0)"/><path class="cls-1" d="M895.69,450V473.9h-6.1V450Z" transform="translate(0 0)"/><path class="cls-1" d="M913.78,449.61c7.83,0,11.28,5,11.55,8.79v.5h-5.71c-.1-2-1.39-4.78-5.77-4.78s-7,3.19-7,7.83,2.45,7.84,6.9,7.84,5.81-3.19,6-4.45h-6.71v-4.18h12V473.9h-3.91l-.9-2.49h-.33c-.93,1-2.72,2.76-7,2.76-7,0-12.15-4.92-12.15-12.22S905.88,449.61,913.78,449.61Z" transform="translate(0 0)"/><path class="cls-1" d="M936.64,450V473.9h-6.1V450Z" transform="translate(0 0)"/><path class="cls-1" d="M949.29,450l8.76,15.16h.33V450h5.84V473.9h-6.57l-8.76-15.17h-.33V473.9h-5.84V450Z" transform="translate(0 0)"/><path class="cls-1" d="M968.84,473.4,976.73,450h7.7l7.9,23.39v.5h-6.14l-1.42-4.65H976.4L975,473.9h-6.14Zm14.63-8.53-2.72-9h-.33l-2.72,9Z" transform="translate(0 0)"/><path class="cls-1" d="M1003.05,450v19.51h10.75v4.38H997V450Z" transform="translate(0 0)"/><path class="cls-1" d="M692.63.4V4.78h-8V24.29h-6.1V4.78h-8V.4Z" transform="translate(0 0)"/><path class="cls-1" d="M708.21,0c7.83,0,12.88,5,12.88,12.35S716,24.69,708.21,24.69s-12.87-5-12.87-12.34S700.38,0,708.21,0Zm0,20.18c4.32,0,6.77-3.19,6.77-7.83s-2.45-7.84-6.77-7.84-6.77,3.19-6.77,7.84S703.9,20.18,708.21,20.18Z" transform="translate(0 0)"/><path class="cls-1" d="M733,.4l7.47,17.69h.33L748.24.4H755V24.29H749.2V11h-.33l-5.61,13.3H738L732.34,11H732v13.3h-5.84V.4Z" transform="translate(0 0)"/><path class="cls-1" d="M783.85,0c7.76,0,11.28,5,11.55,8.86v.5h-5.71c-.1-2.06-1.46-4.85-5.78-4.85s-6.83,3.19-6.83,7.84,2.45,7.83,6.83,7.83,5.71-2.79,6-4.85h5.71v.5c-.54,3.82-3.92,8.86-11.75,8.86S771,19.65,771,12.35,776,0,783.85,0Z" transform="translate(0 0)"/><path class="cls-1" d="M806.31.4V19.91h10.76v4.38H800.21V.4Z" transform="translate(0 0)"/><path class="cls-1" d="M821.17,23.8,829.07.4h7.7l7.9,23.4v.49h-6.14l-1.43-4.64h-8.36l-1.43,4.64h-6.14Zm14.64-8.53-2.72-9h-.34l-2.72,9Z" transform="translate(0 0)"/><path class="cls-1" d="M855,.4l8.76,15.17h.33V.4h5.84V24.29h-6.57L854.57,9.13h-.33V24.29H848.4V.4Z" transform="translate(0 0)"/><path class="cls-1" d="M887.86,0c7.76,0,11.28,5,11.54,8.86v.5h-5.7c-.1-2.06-1.46-4.85-5.78-4.85s-6.83,3.19-6.83,7.84,2.45,7.83,6.83,7.83,5.71-2.79,6-4.85h5.7v.5c-.53,3.82-3.91,8.86-11.74,8.86S875,19.65,875,12.35,880,0,887.86,0Z" transform="translate(0 0)"/><path class="cls-1" d="M908.63.4l5.44,9.86h.34L919.85.4h6.87V.9l-9.43,15.23v8.16h-6.1V16.13L901.76.9V.4Z" transform="translate(0 0)"/><path class="cls-1" d="M937.1.4v6c0,3.39-1.85,5.11-5.31,5.11h-1.52V8.83h1.26c1.79,0,2.45-.77,2.45-2.56V5.91h-3.11V.4Z" transform="translate(0 0)"/><path class="cls-1" d="M952.2,0c6.58,0,10,3.39,10.23,7.6v.5h-5.71c-.07-2.86-2-3.92-4.38-3.92s-3.85,1.06-3.85,2.59,1.19,2.16,3.52,2.69l2.45.56c5.34,1.23,8.1,3.26,8.1,7.17s-3.22,7.5-10.06,7.5S942,21.11,941.65,16.76v-.5h5.78c.16,3,2.22,4.25,4.94,4.25s4.15-1.26,4.15-2.85-1.1-2.29-3.65-2.89l-2.46-.57c-5.17-1.19-8-3.38-8-7.1S945.63,0,952.2,0Z" transform="translate(0 0)"/><rect class="cls-1" x="673.04" y="38.64" width="24.06" height="94.18"/><path class="cls-1" d="M857.39,101.9c0-8.64-5.48-15.92-14.67-18.11v0c8.15-2.64,11.67-9.54,11.67-17.63l0-6.43c0-11.64-8.42-21.07-22.68-21.07H786v94.18h46.12c15.62,0,25.3-10.33,25.3-23.06ZM810,57.48h11.42c5.32,0,8.62,3.53,8.62,7.87V70c0,4.34-3.3,7.86-8.62,7.86H810Zm21.68,48.6c0,4.34-3.29,7.85-8.61,7.85H810V91.56H823.1c5.32,0,8.61,3.51,8.61,7.85Z" transform="translate(0 0)"/><path class="cls-1" d="M642.35,38.64H611.58L586.26,127.8v5H610L615.5,110h22.94L644,132.82h23.82v-5ZM626.16,62.53h1.63l7.57,33.69H618.59Z" transform="translate(0 0)"/><path class="cls-1" d="M565.78,90.21c5,0,13.5-6.57,13.5-17.9l0-12.61c0-11.63-8.85-21.06-23.11-21.06H510.56v94.18h24l0-41.23h6.15l17,41.23h23.51v-5ZM555.34,70c0,4.33-3.55,7.84-9.27,7.84H534.59V57.48l11.48,0c5.72,0,9.27,3.51,9.27,7.84Z" transform="translate(0 0)"/><polygon class="cls-1" points="1016.37 38.64 1009.48 102.78 1009.22 102.78 999.99 38.64 976.12 38.64 966.96 102.78 966.7 102.78 959.74 38.64 935.6 38.64 950.37 132.82 979.99 132.82 987.99 76.36 988.25 76.36 996.12 132.82 1025.73 132.82 1040.64 38.64 1016.37 38.64"/><polygon class="cls-1" points="755.28 38.64 755.29 89.78 755.02 89.78 733 38.64 703.46 38.64 703.46 132.82 727.53 132.82 727.51 78.16 727.77 78.16 751.28 132.82 779.34 132.82 779.34 38.64 755.28 38.64"/><path class="cls-1" d="M934.36,61c0-13-10.7-23.6-26.69-23.6H888.43c-16,0-26.69,10.56-26.69,23.6v49.45c0,13,10.71,23.6,26.69,23.6h19.24c16,0,26.69-10.56,26.69-23.6Zm-24.05,45.21c0,4.17-3.11,7.57-8.16,7.77H894c-5.05-.2-8.16-3.6-8.16-7.77v-41c0-4.17,3.11-7.57,8.16-7.77h8.19c5.05.2,8.16,3.6,8.16,7.77Z" transform="translate(0 0)"/><path class="cls-1" d="M1116,75.43c-3.62-3.65-8.92-5.5-15.75-5.5-.41,0-12.1,0-18.73,8.17,0-2.81-.2-10,1.15-15s4.54-10.65,7.91-11.83a2,2,0,0,1,1.27,0c4.21,1.47,7.56,9.22,8.28,11.82h22.26c-1.16-9.34-3.79-15.64-8.22-19.76-4.94-4.59-12.3-6.74-23.18-6.74-11.55,0-19.53,2.94-24.37,9-4.36,5.43-6.39,13.42-6.39,25.14v31.7c0,12.5,1.73,19.91,5.77,24.76,4.34,5.22,11.89,7.66,23.74,7.67h3.47c11.63,0,19.12-2.75,23.58-8.66,3.91-5.17,5.82-12.89,5.82-25,0-.46,0-1,0-1.47C1122.67,93.09,1122.58,82.06,1116,75.43Zm-14.68,35.41-2,2.9v1.46h2v1.65l-.75,1.08h-18.29l-.76-1.08V115.2h2v-1.46l-2-2.9V96.9l.11-.27c1.89-4.11,12.93-10.66,19.69-10.66Z" transform="translate(0 0)"/><polygon class="cls-1" points="381.72 260.48 381.72 193.49 352.35 154.62 316.14 154.62 286.78 193.49 286.78 389.34 316.14 428.21 352.35 428.21 381.72 389.34 381.72 322.34 386.1 316.54 392.07 316.54 392.07 266.29 386.1 266.29 381.72 260.48"/><polygon class="cls-1" points="81.7 349.93 77.29 344.12 77.29 340.06 0 340.06 0 416.12 9.13 428.2 234.58 428.21 263.89 389.4 263.89 278.38 254.76 266.29 81.64 266.29 77.23 260.48 77.23 238.71 81.65 232.9 182.19 232.9 186.6 238.7 186.6 242.77 263.89 242.77 263.89 166.7 254.76 154.62 29.32 154.62 0 193.43 0 193.43 0 283.35 25.07 316.54 182.3 316.54 186.66 322.36 186.66 344.13 182.24 349.93 81.7 349.93"/><polygon class="cls-1" points="488.54 266.29 484.14 260.48 484.14 238.71 488.55 232.9 589.1 232.9 593.51 238.7 593.51 242.77 670.8 242.77 670.8 166.7 661.66 154.62 436.22 154.62 436.22 154.62 406.9 193.43 406.9 193.43 406.9 389.4 436.22 428.21 661.66 428.21 670.8 416.12 670.8 340.06 593.51 340.06 593.51 344.12 589.1 349.93 488.56 349.93 484.14 344.13 484.14 322.36 488.5 316.54 670.8 316.54 670.8 266.29 488.54 266.29"/><polygon class="cls-1" points="783.91 266.29 783.91 316.54 875.87 316.54 880.28 322.34 880.28 344.12 875.87 349.93 775.33 349.93 770.91 344.13 770.91 238.71 775.33 232.9 875.87 232.9 880.28 238.7 880.28 242.77 957.57 242.77 957.57 166.7 948.44 154.62 723 154.62 722.99 154.62 693.68 193.43 693.68 193.43 693.68 389.4 723 428.21 928.26 428.2 957.57 389.4 957.57 266.29 783.91 266.29"/><polygon class="cls-1" points="1167.06 340.06 1167.06 344.12 1162.65 349.93 1062.1 349.93 1057.69 344.13 1057.69 322.36 1062.11 316.54 1140.22 316.54 1206.56 275.54 1206.56 266.29 1062.09 266.29 1057.69 260.48 1057.69 238.71 1062.1 232.9 1162.64 232.9 1167.06 238.7 1167.06 242.77 1244.35 242.77 1244.35 166.7 1235.21 154.62 1009.77 154.62 980.45 193.43 980.45 193.43 980.45 389.4 1009.77 428.21 1235.21 428.21 1244.35 416.12 1244.35 340.06 1167.06 340.06"/><polygon class="cls-1" points="1555.78 294.01 1557.48 296.25 1561.95 296.25 1633.18 416.09 1624.03 428.21 1540.5 428.21 1479.94 327.89 1466.22 327.89 1405.67 428.21 1322.14 428.21 1312.99 416.09 1384.22 296.25 1388.69 296.25 1390.39 294.01 1390.39 288.81 1388.69 286.57 1384.22 286.57 1312.99 166.73 1322.14 154.62 1405.67 154.62 1466.22 254.94 1479.94 254.94 1540.5 154.62 1624.03 154.62 1633.18 166.73 1561.95 286.57 1557.48 286.57 1555.78 288.81 1555.78 294.01"/></svg>